<svg xmlns="http://www.w3.org/2000/svg" viewBox="0 0 32 32" width="32" height="32">
  <defs>
    <linearGradient id="grad1" x1="0%" y1="0%" x2="100%" y2="100%">
      <stop offset="0%" style="stop-color:#667eea;stop-opacity:1" />
      <stop offset="100%" style="stop-color:#764ba2;stop-opacity:1" />
    </linearGradient>
  </defs>
  
  <!-- Background circle -->
  <circle cx="16" cy="16" r="15" fill="url(#grad1)"/>
  
  <!-- Medical cross (vertical) -->
  <rect x="14" y="8" width="4" height="16" fill="#ffffff" rx="1"/>
  
  <!-- Medical cross (horizontal) -->
  <rect x="8" y="14" width="16" height="4" fill="#ffffff" rx="1"/>
  
  <!-- Heart symbol in center -->
  <path d="M16 20c-0.3-0.3-0.6-0.6-0.8-0.8C14.5 18.5 14 18 14 17.5c0-0.8 0.5-1.5 1.2-1.5 0.3 0 0.6 0.1 0.8 0.3 0.2-0.2 0.5-0.3 0.8-0.3 0.7 0 1.2 0.7 1.2 1.5 0 0.5-0.5 1-0.8 1.7C16.6 19.4 16.3 19.7 16 20z" fill="#ffffff" opacity="0.9"/>
</svg> 