<svg xmlns="http://www.w3.org/2000/svg" viewBox="0 0 512 512" width="512" height="512">
  <defs>
    <linearGradient id="grad1" x1="0%" y1="0%" x2="100%" y2="100%">
      <stop offset="0%" style="stop-color:#667eea;stop-opacity:1" />
      <stop offset="100%" style="stop-color:#764ba2;stop-opacity:1" />
    </linearGradient>
  </defs>
  
  <!-- Background circle -->
  <circle cx="256" cy="256" r="240" fill="url(#grad1)"/>
  
  <!-- Medical cross (vertical) -->
  <rect x="236" y="96" width="40" height="320" fill="#ffffff" rx="6"/>
  
  <!-- Medical cross (horizontal) -->
  <rect x="96" y="236" width="320" height="40" fill="#ffffff" rx="6"/>
  
  <!-- Heart symbol in center -->
  <path d="M256 320c-0.8-0.8-1.6-1.6-2.4-2.4C251.2 315.2 248 312 248 308c0-2.4 1.6-4.8 4-4.8 0.8 0 1.6 0.2 2.4 0.6 0.8-0.4 1.6-0.6 2.4-0.6 2.4 0 4 2.4 4 4.8 0 2.4-2.4 4.8-2.4 6.4C258.4 318.4 256.8 319.2 256 320z" fill="#ffffff" opacity="0.9"/>
  
  <!-- Digital/tech elements -->
  <rect x="320" y="120" width="24" height="24" fill="#ffffff" rx="4"/>
  <rect x="360" y="120" width="24" height="24" fill="#ffffff" rx="4"/>
  <rect x="400" y="120" width="24" height="24" fill="#ffffff" rx="4"/>
  
  <rect x="320" y="160" width="24" height="24" fill="#ffffff" rx="4"/>
  <rect x="360" y="160" width="24" height="24" fill="#ffffff" rx="4"/>
  <rect x="400" y="160" width="24" height="24" fill="#ffffff" rx="4"/>
</svg> 